<?xml version="1.0" encoding="UTF-8" standalone="no"?>
<!DOCTYPE svg PUBLIC "-//W3C//DTD SVG 1.1//EN" "http://www.w3.org/Graphics/SVG/1.1/DTD/svg11.dtd">
<svg version="1.1" xmlns="http://www.w3.org/2000/svg" xmlns:xlink="http://www.w3.org/1999/xlink" preserveAspectRatio="xMidYMid meet" viewBox="772.4061786692482 351.4366883116879 27.13298535774004 37.33299999999997" width="20.35pt" height="28pt"><defs><path d="M795.97 355.93L796.22 356.21L796.46 356.49L796.7 356.76L796.93 357.02L797.15 357.28L797.37 357.53L797.58 357.78L797.78 358.01L797.98 358.23L798.16 358.45L798.34 358.65L798.5 358.84L798.65 359.02L798.79 359.19L798.92 359.34L799.04 359.48L799.15 359.6L799.24 359.71L799.31 359.8L799.37 359.88L799.42 359.93L799.45 359.97L799.46 359.99L799.47 360.02L799.48 360.05L799.49 360.1L799.49 360.18L799.5 360.28L799.5 360.41L799.51 360.58L799.51 360.79L799.52 361.05L799.52 361.35L799.52 361.72L799.52 362.15L799.53 362.64L799.53 363.2L799.53 363.84L799.53 364.56L799.53 365.37L799.53 366.26L799.54 367.26L799.54 368.35L799.54 369.55L799.54 370.86L799.54 372.28L799.54 373.83L799.54 375.63L799.54 377.27L799.54 378.76L799.54 380.1L799.54 381.3L799.54 382.37L799.54 383.32L799.53 384.16L799.53 384.88L799.53 385.51L799.52 386.04L799.51 386.49L799.5 386.86L799.49 387.16L799.48 387.41L799.47 387.6L799.45 387.74L799.44 387.85L799.41 387.93L799.39 387.98L799.37 388.02L799.34 388.06L799.31 388.09L799.27 388.14L799.25 388.17L799.23 388.2L799.2 388.23L799.17 388.26L799.15 388.29L799.12 388.32L799.09 388.35L799.05 388.38L799.02 388.4L798.99 388.43L798.95 388.46L798.91 388.49L798.88 388.51L798.84 388.54L798.81 388.56L798.77 388.58L798.73 388.6L798.69 388.62L798.66 388.64L798.62 388.66L798.58 388.68L798.55 388.69L798.51 388.7L798.48 388.71L798.45 388.72L798.39 388.73L798.31 388.73L798.19 388.73L798.05 388.74L797.87 388.74L797.65 388.75L797.39 388.75L797.09 388.75L796.75 388.76L796.36 388.76L795.92 388.76L795.43 388.76L794.88 388.76L794.28 388.76L793.62 388.77L792.9 388.77L792.12 388.77L791.26 388.77L790.34 388.77L789.35 388.77L788.29 388.77L787.15 388.77L785.93 388.77L773.57 388.77L773.33 388.67L773.29 388.65L773.25 388.64L773.21 388.62L773.17 388.59L773.13 388.57L773.09 388.54L773.05 388.52L773.01 388.49L772.98 388.46L772.94 388.43L772.9 388.4L772.87 388.37L772.84 388.34L772.8 388.3L772.77 388.27L772.74 388.23L772.71 388.19L772.68 388.16L772.65 388.12L772.63 388.08L772.6 388.04L772.58 388L772.56 387.96L772.54 387.92L772.42 387.67L772.41 370.2L772.41 368.29L772.41 366.52L772.41 364.89L772.41 363.4L772.41 362.02L772.41 360.77L772.41 359.64L772.41 358.61L772.41 357.69L772.41 356.86L772.41 356.13L772.41 355.48L772.41 354.92L772.42 354.43L772.42 354.01L772.42 353.66L772.43 353.36L772.43 353.12L772.44 352.93L772.44 352.78L772.45 352.67L772.45 352.59L772.46 352.54L772.47 352.5L772.49 352.44L772.51 352.37L772.54 352.31L772.56 352.25L772.59 352.2L772.63 352.14L772.66 352.09L772.7 352.03L772.73 351.99L772.78 351.94L772.82 351.89L772.86 351.85L772.91 351.81L772.96 351.77L773.01 351.73L773.06 351.69L773.12 351.66L773.17 351.63L773.23 351.6L773.29 351.58L773.35 351.55L773.41 351.53L773.48 351.51L773.55 351.5L773.58 351.49L773.63 351.49L773.71 351.48L773.81 351.48L773.94 351.47L774.1 351.47L774.28 351.47L774.49 351.46L774.74 351.46L775.01 351.46L775.32 351.46L775.66 351.45L776.04 351.45L776.46 351.45L776.91 351.45L777.41 351.45L777.94 351.45L778.52 351.44L779.13 351.44L779.8 351.44L780.51 351.44L781.26 351.44L782.06 351.44L782.92 351.44L792.05 351.44L795.72 355.64L795.97 355.93ZM792.85 378.14L792.65 378.17L792.57 378.19L792.47 378.22L792.37 378.26L792.25 378.3L792.14 378.35L792.03 378.4L791.92 378.45L791.54 378.67L791.19 378.94L790.88 379.25L790.62 379.59L790.41 379.97L790.25 380.37L790.15 380.8L790.11 381.15L790.09 381.69L790.08 382.34L790.08 383.03L790.09 383.68L790.11 384.22L790.15 384.57L790.25 385L790.41 385.41L790.63 385.79L790.89 386.13L791.2 386.44L791.54 386.71L791.93 386.93L792.14 387.02L792.34 387.1L792.54 387.16L792.74 387.21L792.95 387.24L793.17 387.26L793.4 387.26L793.78 387.24L794.14 387.17L794.5 387.06L794.84 386.9L795.16 386.7L795.47 386.46L795.76 386.18L795.87 386.05L795.99 385.91L796.09 385.78L796.19 385.65L796.26 385.54L796.31 385.46L796.31 385.43L796.27 385.4L796.16 385.34L796.01 385.25L795.84 385.16L795.68 385.07L795.54 384.99L795.44 384.94L795.41 384.93L795.38 384.92L795.35 384.92L795.33 384.94L795.3 384.98L795.26 385.03L795.21 385.1L795.11 385.25L794.98 385.39L794.84 385.54L794.68 385.67L794.52 385.79L794.36 385.9L794.2 385.98L794.09 386.03L794 386.07L793.91 386.1L793.82 386.12L793.73 386.13L793.62 386.15L793.49 386.15L793.31 386.16L793.14 386.15L792.98 386.14L792.83 386.1L792.68 386.06L792.52 386L792.35 385.92L792.12 385.78L791.9 385.6L791.71 385.4L791.54 385.17L791.4 384.92L791.29 384.66L791.23 384.39L791.21 384.28L791.2 384.12L791.2 383.91L791.19 383.64L791.19 383.32L791.19 382.95L791.19 382.51L791.2 381.95L791.21 381.53L791.22 381.24L791.23 381.03L791.24 380.88L791.27 380.78L791.3 380.68L791.47 380.32L791.69 379.99L791.96 379.72L792.26 379.5L792.6 379.34L792.96 379.24L793.35 379.21L793.66 379.23L793.95 379.3L794.24 379.41L794.51 379.56L794.76 379.75L794.99 379.98L795.2 380.25L795.23 380.3L795.27 380.35L795.3 380.4L795.33 380.43L795.35 380.46L795.36 380.47L795.37 380.48L795.43 380.45L795.56 380.39L795.73 380.29L795.92 380.19L796.09 380.09L796.23 380.01L796.29 379.97L796.29 379.93L796.24 379.84L796.17 379.71L796.06 379.57L795.94 379.42L795.81 379.26L795.68 379.12L795.47 378.93L795.26 378.75L795.04 378.6L794.82 378.47L794.59 378.36L794.34 378.27L794.09 378.19L793.91 378.15L793.71 378.13L793.5 378.11L793.28 378.11L793.06 378.12L792.85 378.14ZM785.06 378.17L784.34 378.42L783.72 378.81L783.19 379.34L782.79 379.97L782.54 380.68L782.49 381.24L782.47 382.18L782.47 383.23L782.5 384.16L782.55 384.72L782.71 385.21L782.95 385.68L783.26 386.12L783.63 386.49L784.04 386.79L784.39 386.98L784.74 387.12L785.1 387.21L785.49 387.25L785.91 387.25L786.21 387.23L786.47 387.19L786.71 387.13L786.95 387.04L787.22 386.92L787.65 386.65L788.05 386.32L788.39 385.91L788.67 385.46L788.89 384.95L789 384.61L789 382.73L789 381.68L788.98 381.01L788.93 380.59L788.83 380.26L788.66 379.91L788.45 379.53L788.19 379.2L787.9 378.91L787.56 378.66L787.18 378.45L787.02 378.37L786.86 378.31L786.7 378.25L786.56 378.2L786.43 378.17L786.17 378.14L785.88 378.12L785.58 378.12L785.3 378.13L785.06 378.17ZM775.11 387.12L776.7 387.15L777.7 387.16L778.39 387.14L778.89 387.08L779.27 386.97L779.65 386.79L780.01 386.58L780.33 386.32L780.62 386.03L780.86 385.7L781.07 385.34L781.23 385L781.32 384.69L781.38 384.31L781.41 383.76L781.42 382.93L781.43 382.1L781.42 381.5L781.38 381.06L781.33 380.72L781.24 380.43L781.13 380.14L781 379.89L780.85 379.65L780.67 379.42L780.44 379.18L780.26 379.01L780.11 378.88L779.97 378.78L779.81 378.68L779.61 378.58L779.45 378.5L779.29 378.43L779.13 378.37L778.99 378.33L778.87 378.3L778.7 378.27L778.44 378.25L778.07 378.24L777.55 378.24L776.84 378.23L775.11 378.23L775.11 387.12ZM781.66 352.75L780.94 352.75L780.24 352.75L779.57 352.75L778.92 352.75L778.29 352.75L777.7 352.76L777.13 352.76L776.61 352.76L776.12 352.76L775.67 352.76L775.26 352.76L774.9 352.77L774.58 352.77L774.32 352.77L774.11 352.77L773.96 352.78L773.86 352.78L773.83 352.78L773.83 352.83L773.82 352.96L773.82 353.17L773.82 353.45L773.82 353.81L773.82 354.25L773.81 354.74L773.81 355.3L773.81 355.92L773.81 356.6L773.81 357.32L773.8 358.1L773.8 358.92L773.8 359.78L773.8 360.67L773.8 361.61L773.8 362.57L773.8 363.56L773.8 364.57L773.8 376.33L798.14 376.33L798.13 368.71L798.12 361.08L794.79 361.06L794.34 361.06L793.93 361.06L793.56 361.05L793.23 361.05L792.93 361.05L792.67 361.04L792.44 361.04L792.24 361.04L792.06 361.03L791.91 361.03L791.78 361.03L791.68 361.02L791.59 361.01L791.52 361.01L791.46 361L791.42 360.99L791.38 360.99L791.35 360.98L791.33 360.97L791.31 360.95L791.28 360.94L791.26 360.92L791.23 360.9L791.21 360.89L791.19 360.87L791.17 360.85L791.14 360.83L791.12 360.81L791.1 360.79L791.09 360.77L791.07 360.74L791.05 360.72L791.04 360.7L791.02 360.68L791.01 360.65L791 360.63L790.99 360.61L790.98 360.58L790.97 360.56L790.97 360.52L790.97 360.46L790.96 360.38L790.96 360.28L790.96 360.15L790.96 360.01L790.95 359.84L790.95 359.65L790.95 359.44L790.95 359.21L790.94 358.96L790.94 358.69L790.94 358.39L790.94 358.08L790.94 357.74L790.93 357.38L790.93 357L790.93 356.61L790.93 352.75L782.4 352.75L781.66 352.75Z" id="e1tP54rx6Y"></path><path d="M777.63 370.75C777.89 371.15 778.28 371.4 778.75 371.46C778.76 371.46 778.82 371.47 778.93 371.48L778.93 371.17L778.93 370.86C778.85 370.86 778.81 370.86 778.8 370.86C778.54 370.86 778.22 370.62 778.06 370.3C777.98 370.16 777.98 369.97 777.96 366.18C777.96 365.91 777.96 364.59 777.96 362.21L777.66 362.21L777.36 362.21L777.36 366.12C777.36 368.91 777.45 370.45 777.63 370.75Z" id="b17bGRGndq"></path><path d="M779.86 363.22L780.16 363.22L780.46 363.22L780.46 362.72L780.46 362.21L780.16 362.21L779.86 362.21L779.86 362.72L779.86 363.22Z" id="cdkOkjipe"></path><path d="M791.37 365.2L791.55 365.21L791.71 365.23L791.85 365.27L792.01 365.32L792.72 365.65L793.31 366.13L793.75 366.73L794.05 367.42L794.18 368.19L794.21 368.65L788.47 368.65L788.5 368.81L788.67 369.36L788.98 369.87L789.39 370.3L789.89 370.63L790.45 370.84L790.82 370.89L791.17 370.89L791.52 370.82L791.83 370.7L792.11 370.52L792.28 370.39L792.48 370.61L792.69 370.82L792.52 370.97L792.37 371.08L792.17 371.2L791.96 371.3L791.73 371.39L791.53 371.45L791.29 371.48L791 371.49L790.68 371.47L790.37 371.43L790.1 371.36L789.57 371.15L789.1 370.85L788.68 370.47L788.34 370.03L788.09 369.53L788 369.28L787.93 369.06L787.89 368.85L787.87 368.61L787.87 368.33L787.89 367.89L787.97 367.47L788.11 367.08L788.3 366.71L788.55 366.35L788.86 366.02L789.21 365.74L789.61 365.5L790.03 365.32L790.46 365.2L790.53 365.2L790.63 365.19L790.78 365.19L790.94 365.19L791.12 365.19L791.37 365.2ZM790.23 365.9L789.62 366.2L789.09 366.67L788.7 367.23L788.5 367.85L788.48 368.01L791.02 368.01L792.65 368.02L793.39 367.98L793.56 367.86L793.48 367.59L793.23 367.04L792.86 366.56L792.39 366.18L791.86 365.91L791.48 365.82L791.05 365.79L790.61 365.81L790.23 365.9Z" id="hdePIJ9HF"></path><path d="M779.86 371.36L780.16 371.36L780.46 371.36L780.46 368.31L780.46 365.26L780.16 365.26L779.86 365.26L779.86 368.31L779.86 371.36Z" id="a4ByMLu8et"></path><path d="M783 368.35C783.09 368.55 783.52 369.56 784.29 371.36L784.63 371.36L784.96 371.34C785.73 369.55 786.16 368.55 786.25 368.35C786.96 366.71 787.55 365.34 787.56 365.31C787.57 365.27 787.5 365.26 787.25 365.26C787.23 365.26 787.12 365.26 786.92 365.26L785.78 367.91L784.63 370.56C784.58 370.45 784.55 370.39 784.55 370.38C784.5 370.28 783.98 369.09 783.4 367.73C783.33 367.57 782.98 366.74 782.34 365.26C782.15 365.26 782.04 365.26 782.01 365.26C781.8 365.26 781.69 365.28 781.7 365.3C781.7 365.33 782.29 366.7 783 368.35Z" id="cayVf1FP9T"></path><path d="M784.23 379.84C783.94 380.14 783.76 380.44 783.66 380.82C783.57 381.17 783.57 384.22 783.66 384.57C783.85 385.28 784.48 385.91 785.19 386.1C785.49 386.18 786 386.18 786.29 386.1C787.09 385.89 787.73 385.21 787.88 384.43C787.9 384.3 787.92 383.53 787.92 382.67C787.92 380.97 787.9 380.8 787.65 380.34C787.39 379.84 786.85 379.42 786.29 379.27C786.01 379.19 785.46 379.2 785.17 379.28C784.82 379.37 784.54 379.54 784.23 379.84Z" id="b5b19eUqfq"></path><path d="M776.22 386.08C776.85 386.08 777.2 386.08 777.27 386.08C778 386.08 778.4 386.06 778.6 386.02C779.42 385.84 780.09 385.17 780.27 384.34C780.34 384 780.36 381.48 780.28 381.09C780.22 380.74 779.98 380.27 779.73 380.02C779.62 379.9 779.39 379.73 779.24 379.64C778.78 379.37 778.59 379.34 777.32 379.34C777.25 379.34 776.88 379.34 776.22 379.34L776.22 382.71L776.22 386.08Z" id="f1CGiFp46M"></path></defs><g><g><g><use xlink:href="#e1tP54rx6Y" opacity="1" fill="#000000" fill-opacity="1"></use><g><use xlink:href="#e1tP54rx6Y" opacity="1" fill-opacity="0" stroke="#000000" stroke-width="1" stroke-opacity="0"></use></g></g><g><use xlink:href="#b17bGRGndq" opacity="1" fill="#000000" fill-opacity="1"></use><g><use xlink:href="#b17bGRGndq" opacity="1" fill-opacity="0" stroke="#000000" stroke-width="1" stroke-opacity="0"></use></g></g><g><use xlink:href="#cdkOkjipe" opacity="1" fill="#000000" fill-opacity="1"></use><g><use xlink:href="#cdkOkjipe" opacity="1" fill-opacity="0" stroke="#000000" stroke-width="1" stroke-opacity="0"></use></g></g><g><use xlink:href="#hdePIJ9HF" opacity="1" fill="#000000" fill-opacity="1"></use><g><use xlink:href="#hdePIJ9HF" opacity="1" fill-opacity="0" stroke="#000000" stroke-width="1" stroke-opacity="0"></use></g></g><g><use xlink:href="#a4ByMLu8et" opacity="1" fill="#000000" fill-opacity="1"></use><g><use xlink:href="#a4ByMLu8et" opacity="1" fill-opacity="0" stroke="#000000" stroke-width="1" stroke-opacity="0"></use></g></g><g><use xlink:href="#cayVf1FP9T" opacity="1" fill="#000000" fill-opacity="1"></use><g><use xlink:href="#cayVf1FP9T" opacity="1" fill-opacity="0" stroke="#000000" stroke-width="1" stroke-opacity="0"></use></g></g><g><use xlink:href="#b5b19eUqfq" opacity="1" fill="#000000" fill-opacity="1"></use><g><use xlink:href="#b5b19eUqfq" opacity="1" fill-opacity="0" stroke="#000000" stroke-width="1" stroke-opacity="0"></use></g></g><g><use xlink:href="#f1CGiFp46M" opacity="1" fill="#000000" fill-opacity="1"></use><g><use xlink:href="#f1CGiFp46M" opacity="1" fill-opacity="0" stroke="#000000" stroke-width="1" stroke-opacity="0"></use></g></g></g></g></svg>